<svg xmlns="http://www.w3.org/2000/svg" xmlns:xlink="http://www.w3.org/1999/xlink" width="500" zoomAndPan="magnify" viewBox="0 0 375 374.999991" height="500" preserveAspectRatio="xMidYMid meet" version="1.0"><defs><clipPath id="1d7961932b"><path d="M 79.261719 46 L 296.011719 46 L 296.011719 331.660156 L 79.261719 331.660156 Z M 79.261719 46 " clip-rule="nonzero"/></clipPath></defs><path fill="#ffffff" d="M 170.183594 195.054688 C 164.386719 195.054688 161.285156 192.359375 160.722656 191.828125 C 160.691406 191.796875 160.660156 191.765625 160.660156 191.734375 C 158.71875 189.351562 155.582031 183.492188 156.679688 180.046875 C 157.054688 178.859375 157.964844 178.074219 159.375 177.699219 C 164.386719 176.351562 169.558594 172.5 172.15625 170.335938 C 172.316406 170.210938 172.535156 170.117188 172.753906 170.117188 C 172.878906 170.117188 173.003906 170.148438 173.128906 170.210938 C 173.441406 170.367188 173.660156 170.679688 173.660156 171.027344 C 173.726562 174.410156 174.414062 179.640625 177.234375 185.375 C 177.359375 185.65625 177.359375 186 177.203125 186.25 C 175.917969 188.316406 175.417969 190.730469 175.699219 193.550781 C 175.730469 193.988281 175.449219 194.425781 175.007812 194.519531 C 173.316406 194.867188 171.71875 195.054688 170.183594 195.054688 Z M 170.183594 195.054688 " fill-opacity="1" fill-rule="nonzero"/><path fill="#ffffff" d="M 158.496094 329.191406 C 158.027344 329.191406 157.558594 329.128906 157.148438 329.035156 C 150.789062 327.59375 146.464844 315.128906 142.582031 302.472656 C 139.292969 291.757812 141.421875 286.023438 142.175781 284.523438 C 142.269531 284.300781 142.488281 284.113281 142.707031 284.050781 C 145.996094 283.019531 175.132812 273.808594 182.121094 270.425781 C 188.953125 267.105469 192.273438 256.078125 192.867188 253.882812 C 192.929688 253.664062 193.085938 253.476562 193.273438 253.351562 C 194.84375 252.410156 196.566406 250.941406 198.726562 248.683594 C 204.554688 242.699219 207.59375 235.964844 208.15625 234.679688 C 208.1875 234.585938 208.25 234.523438 208.28125 234.460938 C 209.503906 232.988281 210.820312 230.453125 210.726562 227.851562 C 210.726562 227.695312 210.757812 227.539062 210.820312 227.414062 C 211.164062 226.753906 211.574219 226.191406 211.917969 225.691406 C 212.136719 225.410156 212.324219 225.125 212.511719 224.84375 C 212.667969 224.625 212.890625 224.46875 213.171875 224.4375 C 213.203125 224.4375 213.234375 224.4375 213.296875 224.4375 C 213.515625 224.4375 213.765625 224.53125 213.921875 224.6875 L 217.433594 228.039062 C 217.558594 228.164062 217.746094 228.257812 217.964844 228.257812 C 217.964844 228.257812 217.996094 228.257812 217.996094 228.257812 C 218.214844 228.257812 218.402344 228.164062 218.527344 228.007812 C 219.0625 227.414062 231.84375 212.753906 246.664062 186.25 C 247.132812 185.40625 247.574219 184.589844 248.011719 183.777344 C 248.136719 183.558594 248.324219 183.398438 248.574219 183.335938 C 248.636719 183.304688 248.730469 183.304688 248.792969 183.304688 C 248.949219 183.304688 249.140625 183.335938 249.265625 183.429688 C 252.523438 185.4375 263.269531 193.207031 265.398438 208.242188 C 265.398438 208.273438 265.398438 208.304688 265.398438 208.335938 C 265.398438 208.335938 265.429688 208.398438 265.429688 208.398438 C 265.902344 210.058594 269.910156 224.96875 269.660156 232.988281 C 269.535156 236.75 265.210938 248.902344 257.441406 264.003906 C 249.046875 280.324219 240.148438 293.105469 232.972656 299.058594 C 216.679688 312.589844 178.015625 320.078125 176.386719 320.390625 C 176.261719 320.421875 176.136719 320.453125 176.042969 320.546875 C 176.011719 320.578125 165.015625 329.191406 158.496094 329.191406 Z M 158.496094 329.191406 " fill-opacity="1" fill-rule="nonzero"/><path fill="#cccccc" d="M 217.871094 225.941406 C 217.652344 225.941406 217.402344 225.847656 217.242188 225.691406 L 212.261719 220.929688 L 212.230469 220.898438 C 212.199219 220.867188 212.167969 220.835938 212.136719 220.804688 C 210.257812 218.609375 206.433594 215.257812 203.769531 213.472656 C 203.550781 213.316406 203.425781 213.097656 203.394531 212.847656 C 203.363281 212.597656 203.425781 212.34375 203.613281 212.125 C 207.96875 207.019531 230.339844 180.894531 243.1875 167.046875 C 249.265625 160.5 254.402344 154.894531 258.539062 150.382812 C 258.726562 150.195312 258.976562 150.101562 259.195312 150.101562 C 259.351562 150.101562 259.476562 150.132812 259.636719 150.195312 C 260.011719 150.382812 260.199219 150.820312 260.074219 151.226562 C 258.382812 157.867188 254.464844 169.210938 245.378906 185.46875 C 232.910156 207.773438 221.691406 221.835938 218.558594 225.628906 C 218.402344 225.816406 218.152344 225.941406 217.902344 225.941406 C 217.902344 225.941406 217.902344 225.941406 217.871094 225.941406 Z M 217.871094 225.941406 " fill-opacity="1" fill-rule="nonzero"/><path fill="#ffffff" d="M 214.078125 116.332031 C 213.859375 116.332031 213.640625 116.238281 213.453125 116.078125 C 210.820312 113.605469 202.863281 107.871094 185.976562 107.871094 C 183.78125 107.871094 181.496094 107.964844 179.175781 108.152344 C 165.328125 109.3125 161.222656 110.222656 158.90625 114.511719 C 158.78125 114.765625 158.527344 114.953125 158.246094 114.984375 C 158.214844 114.984375 158.152344 114.984375 158.121094 114.984375 C 157.871094 114.984375 157.652344 114.890625 157.496094 114.734375 C 156.148438 113.417969 153.859375 110.566406 153.515625 106.179688 C 153.328125 103.832031 153.390625 101.730469 153.734375 99.945312 C 153.796875 99.539062 153.546875 99.132812 153.140625 99.070312 C 153.109375 99.070312 153.046875 99.070312 153.015625 99.070312 C 152.640625 99.070312 152.324219 99.320312 152.261719 99.695312 C 152.105469 100.542969 152.011719 101.511719 151.949219 102.546875 C 151.949219 102.828125 151.792969 103.109375 151.542969 103.265625 C 151.386719 103.359375 151.230469 103.425781 151.039062 103.425781 C 150.914062 103.425781 150.820312 103.394531 150.695312 103.359375 C 148.785156 102.578125 145.152344 100.761719 142.394531 97.597656 C 139.039062 93.679688 137.976562 88.949219 139.261719 83.53125 C 142.738281 68.652344 155.679688 68.214844 157.148438 68.214844 L 157.277344 68.214844 C 157.527344 68.214844 157.683594 68.085938 157.777344 67.992188 C 157.933594 67.835938 157.996094 67.648438 157.996094 67.460938 C 157.996094 67.367188 158.152344 55.242188 174.789062 50.480469 C 178.488281 49.417969 181.996094 48.882812 185.160156 48.882812 C 193.964844 48.882812 197.597656 52.925781 198.007812 53.363281 C 198.164062 53.550781 198.382812 53.644531 198.601562 53.644531 C 198.664062 53.644531 198.726562 53.644531 198.789062 53.613281 C 198.820312 53.613281 202.988281 52.488281 208.660156 52.488281 C 214.363281 52.488281 222.507812 53.675781 228.992188 59.285156 C 240.898438 69.589844 237.484375 79.207031 237.328125 79.617188 C 237.203125 79.898438 237.265625 80.210938 237.484375 80.429688 C 238.265625 81.308594 244.941406 89.046875 242.527344 96.40625 C 240.867188 101.511719 235.164062 105.273438 225.578125 107.589844 C 225.515625 107.621094 225.421875 107.621094 225.359375 107.621094 C 225.140625 107.621094 224.890625 107.527344 224.730469 107.371094 C 224.511719 107.152344 224.417969 106.839844 224.449219 106.554688 L 225.078125 103.109375 C 225.109375 102.921875 225.078125 102.703125 224.953125 102.546875 C 224.824219 102.390625 224.667969 102.265625 224.480469 102.234375 C 224.417969 102.234375 224.386719 102.234375 224.324219 102.234375 C 223.949219 102.234375 223.636719 102.484375 223.574219 102.859375 L 222.570312 108.25 C 222.539062 108.34375 222.507812 108.46875 222.445312 108.53125 C 222.351562 108.6875 222.320312 108.875 222.351562 109.03125 C 222.382812 109.125 222.351562 109.25 222.351562 109.34375 L 221.566406 113.574219 C 221.472656 114.011719 221.097656 114.324219 220.660156 114.324219 C 220.628906 114.324219 220.566406 114.324219 220.535156 114.324219 C 220.25 114.292969 219.96875 114.261719 219.6875 114.261719 C 217.621094 114.261719 215.738281 115.328125 214.519531 116.207031 C 214.457031 116.269531 214.265625 116.332031 214.078125 116.332031 Z M 214.078125 116.332031 " fill-opacity="1" fill-rule="nonzero"/><path fill="#ffffff" d="M 149.097656 235.777344 C 148.847656 235.777344 148.628906 235.683594 148.441406 235.496094 C 148.160156 235.214844 148.09375 234.804688 148.285156 234.460938 L 164.292969 201.945312 C 164.386719 201.726562 164.574219 201.570312 164.796875 201.507812 L 177.109375 196.777344 C 177.453125 196.652344 177.671875 196.273438 177.578125 195.898438 C 175.917969 188.601562 177.796875 183.621094 192.585938 178.167969 C 206.621094 173 217.304688 158.152344 218.496094 156.492188 C 218.558594 156.429688 218.589844 156.367188 218.652344 156.304688 L 221.722656 153.796875 C 221.882812 153.671875 222.101562 153.578125 222.289062 153.578125 C 222.476562 153.578125 222.695312 153.640625 222.851562 153.796875 C 224.011719 154.738281 226.171875 157.117188 227.832031 162.472656 C 229.527344 167.988281 232.597656 170.933594 234.851562 172.40625 C 235.070312 172.5625 235.226562 172.78125 235.257812 173.0625 C 235.289062 173.3125 235.195312 173.59375 235.039062 173.78125 C 221.816406 188.539062 205.054688 208.117188 201.828125 211.90625 C 201.640625 212.09375 201.390625 212.21875 201.140625 212.21875 C 201.140625 212.21875 201.046875 212.21875 201.046875 212.21875 C 200.792969 212.21875 200.574219 212.28125 200.386719 212.410156 C 199.605469 212.941406 198.039062 214.851562 196.15625 217.546875 C 195.96875 217.796875 195.6875 217.921875 195.40625 217.921875 C 195.3125 217.921875 195.25 217.921875 195.15625 217.890625 C 193.496094 217.421875 192.117188 217.203125 190.925781 217.203125 C 189.609375 217.203125 188.542969 217.484375 187.636719 218.046875 C 185.945312 219.144531 182.9375 220.460938 178.394531 222.402344 L 178.238281 222.464844 C 172.628906 224.90625 164.953125 228.226562 154.175781 233.523438 C 152.640625 234.273438 151.039062 235.027344 149.441406 235.746094 C 149.347656 235.746094 149.222656 235.777344 149.097656 235.777344 Z M 149.097656 235.777344 " fill-opacity="1" fill-rule="nonzero"/><path fill="#ffffff" d="M 183.90625 267.074219 C 183.75 267.074219 183.625 267.042969 183.46875 266.949219 C 183.125 266.757812 182.9375 266.351562 183 265.945312 C 183.125 265.320312 183.21875 264.660156 183.3125 263.941406 C 183.65625 261.246094 184.03125 258.207031 187.667969 254.855469 C 187.824219 254.699219 188.042969 254.605469 188.292969 254.605469 C 188.324219 254.605469 188.355469 254.605469 188.386719 254.605469 C 188.605469 254.636719 188.859375 254.636719 189.078125 254.636719 C 189.296875 254.636719 189.515625 254.636719 189.734375 254.605469 C 189.765625 254.605469 189.796875 254.605469 189.828125 254.605469 C 190.109375 254.605469 190.363281 254.730469 190.550781 254.949219 C 190.738281 255.199219 190.800781 255.511719 190.707031 255.796875 C 189.578125 259.117188 187.605469 263.722656 184.597656 266.726562 C 184.378906 266.980469 184.125 267.074219 183.90625 267.074219 Z M 183.90625 267.074219 " fill-opacity="1" fill-rule="nonzero"/><path fill="#ffffff" d="M 145.839844 281.453125 C 145.558594 281.453125 145.308594 281.328125 145.121094 281.105469 C 144.867188 280.824219 144.835938 280.417969 145.023438 280.074219 C 146.625 277.253906 147.875 274.121094 148.691406 270.769531 C 148.691406 270.738281 148.722656 270.675781 148.722656 270.613281 C 148.753906 270.394531 148.847656 270.207031 149.003906 270.046875 C 150.601562 268.515625 152.261719 266.632812 154.015625 264.660156 C 157.277344 260.964844 160.660156 257.140625 163.667969 255.511719 C 164.765625 254.917969 166.394531 254.417969 168.648438 253.914062 C 168.710938 253.914062 168.773438 253.882812 168.835938 253.882812 C 169.148438 253.882812 169.433594 254.039062 169.621094 254.324219 C 169.808594 254.636719 169.808594 255.074219 169.558594 255.355469 C 166.519531 259.210938 164.765625 262.1875 164.636719 263.785156 C 164.480469 265.757812 165.609375 268.042969 167.550781 269.609375 C 168.242188 270.175781 169.402344 270.894531 171 271.332031 C 171.375 271.425781 171.65625 271.773438 171.65625 272.179688 C 171.65625 272.585938 171.4375 272.929688 171.0625 273.085938 C 162.695312 276.03125 151.824219 279.539062 146.089844 281.390625 C 146.027344 281.421875 145.933594 281.453125 145.839844 281.453125 Z M 145.839844 281.453125 " fill-opacity="1" fill-rule="nonzero"/><path fill="#ffffff" d="M 118.738281 295.171875 C 116.859375 295.171875 115.199219 294.890625 113.914062 294.359375 C 109.152344 292.382812 103.855469 289.503906 100.972656 282.988281 C 97.246094 274.652344 98.5 262.375 104.671875 246.460938 C 112.066406 227.445312 126.789062 214.070312 137.851562 206.207031 C 148.222656 198.8125 157.339844 194.773438 159.875 193.707031 C 160 193.644531 160.09375 193.644531 160.222656 193.644531 C 160.410156 193.644531 160.597656 193.707031 160.753906 193.800781 C 162.289062 194.867188 164.890625 196.242188 168.648438 196.527344 C 169.085938 196.558594 169.402344 196.871094 169.464844 197.308594 C 169.527344 197.714844 169.277344 198.125 168.898438 198.28125 L 163.636719 200.316406 C 163.449219 200.378906 163.324219 200.503906 163.230469 200.691406 L 145.214844 237.28125 C 145.121094 237.46875 144.929688 237.625 144.742188 237.71875 C 130.300781 243.609375 120.398438 244.894531 119.992188 244.957031 C 119.804688 244.988281 119.617188 245.082031 119.488281 245.207031 C 108.273438 258.519531 108.679688 271.898438 112.753906 279.949219 C 114.601562 283.582031 117.140625 285.867188 119.332031 285.867188 C 119.394531 285.867188 119.457031 285.867188 119.523438 285.867188 C 122.625 285.648438 131.773438 281.167969 144.617188 273.527344 C 144.773438 273.433594 144.929688 273.402344 145.085938 273.402344 C 145.308594 273.402344 145.496094 273.464844 145.683594 273.621094 C 145.964844 273.871094 146.089844 274.277344 145.933594 274.652344 C 141.984375 285.054688 134.464844 290.097656 130.363281 292.164062 C 126.507812 294.074219 122.371094 295.171875 118.738281 295.171875 Z M 118.738281 295.171875 " fill-opacity="1" fill-rule="nonzero"/><path fill="#ffb600" d="M 253.304688 277.472656 C 253.085938 277.472656 252.867188 277.410156 252.710938 277.253906 C 252.367188 276.972656 252.304688 276.46875 252.523438 276.09375 C 262.832031 258.675781 271.039062 238.628906 271.226562 232.988281 C 271.507812 224.65625 267.4375 209.683594 266.964844 207.992188 C 266.964844 207.960938 266.933594 207.929688 266.933594 207.867188 C 264.648438 191.890625 253.367188 183.996094 249.953125 181.960938 C 249.546875 181.707031 249.390625 181.175781 249.609375 180.769531 C 261.921875 157.335938 262.675781 145.933594 262.675781 145.464844 C 262.707031 145.152344 262.519531 144.835938 262.203125 144.710938 C 262.109375 144.679688 262.015625 144.648438 261.921875 144.648438 C 261.703125 144.648438 261.515625 144.742188 261.359375 144.898438 C 261.296875 144.960938 256.40625 150.507812 242.058594 165.953125 C 240.648438 167.484375 239.050781 169.242188 237.296875 171.152344 C 237.109375 171.339844 236.855469 171.464844 236.605469 171.464844 C 236.449219 171.464844 236.292969 171.433594 236.167969 171.339844 C 234.351562 170.304688 231.03125 167.675781 229.273438 161.941406 C 226.644531 153.296875 222.601562 151.730469 222.414062 151.667969 C 222.320312 151.636719 222.226562 151.605469 222.132812 151.605469 C 221.945312 151.605469 221.785156 151.667969 221.660156 151.761719 L 219.125 153.828125 C 218.96875 153.953125 218.746094 154.046875 218.558594 154.046875 C 218.464844 154.046875 218.402344 154.046875 218.308594 154.015625 C 218.027344 153.953125 217.808594 153.734375 217.683594 153.453125 C 216.523438 150.320312 216.054688 145.871094 215.960938 143.929688 C 215.960938 143.898438 215.960938 143.867188 215.960938 143.835938 C 215.929688 143.742188 215.929688 143.617188 215.960938 143.523438 C 216.304688 141.484375 216.429688 139.480469 216.398438 137.539062 C 216.398438 137.257812 216.523438 137.003906 216.710938 136.816406 C 216.867188 136.660156 217.085938 136.597656 217.304688 136.597656 C 217.371094 136.597656 217.402344 136.597656 217.464844 136.597656 C 217.777344 136.660156 218.121094 136.691406 218.464844 136.691406 C 220.09375 136.691406 221.691406 136.035156 223.164062 134.75 C 226.707031 131.648438 228.929688 125.101562 226.078125 119.054688 C 225.296875 117.425781 224.386719 116.171875 223.320312 115.359375 C 223.039062 115.140625 222.914062 114.828125 222.976562 114.480469 L 223.792969 110.003906 C 223.855469 109.625 224.136719 109.34375 224.480469 109.28125 C 231.15625 107.808594 236.230469 105.679688 239.582031 102.890625 C 239.738281 102.765625 239.960938 102.671875 240.179688 102.671875 C 240.335938 102.671875 240.492188 102.703125 240.648438 102.796875 C 273.265625 121.71875 293.535156 156.835938 293.535156 194.519531 C 293.535156 210.308594 289.902344 226.191406 283.070312 240.445312 C 276.242188 254.636719 266.152344 267.324219 253.839844 277.191406 C 253.714844 277.410156 253.527344 277.472656 253.304688 277.472656 Z M 253.304688 277.472656 " fill-opacity="1" fill-rule="nonzero"/><path fill="#ffb600" d="M 99.9375 253.382812 C 99.625 253.382812 99.34375 253.226562 99.1875 252.976562 C 87.71875 235.652344 81.671875 215.476562 81.671875 194.613281 C 81.671875 154.421875 105.015625 117.050781 141.171875 99.382812 C 141.296875 99.320312 141.421875 99.289062 141.578125 99.289062 C 141.828125 99.289062 142.046875 99.382812 142.238281 99.570312 C 142.613281 99.945312 142.988281 100.292969 143.363281 100.605469 C 146.558594 103.359375 150.039062 104.738281 151.386719 105.210938 C 151.730469 105.335938 151.949219 105.617188 151.980469 105.992188 C 151.980469 106.054688 151.980469 106.117188 151.980469 106.179688 C 151.980469 106.210938 151.980469 106.242188 151.980469 106.304688 C 152.417969 112.070312 155.867188 115.484375 157.339844 116.675781 C 157.621094 116.925781 157.746094 117.300781 157.621094 117.644531 C 156.960938 119.652344 151.417969 137.664062 158.527344 153.042969 C 161.347656 159.121094 165.765625 163.851562 171.65625 167.140625 C 171.90625 167.296875 172.09375 167.550781 172.125 167.832031 C 172.15625 168.113281 172.03125 168.425781 171.8125 168.613281 C 169.148438 170.871094 163.949219 174.878906 158.9375 176.226562 C 156.992188 176.757812 155.742188 177.886719 155.175781 179.578125 C 154.078125 183.023438 156.273438 188.097656 158.496094 191.417969 C 158.652344 191.640625 158.6875 191.921875 158.621094 192.171875 C 158.558594 192.421875 158.371094 192.640625 158.121094 192.734375 C 154.925781 194.113281 146.527344 198.09375 137.003906 204.859375 C 125.757812 212.847656 110.78125 226.472656 103.230469 245.863281 C 102.320312 248.183594 101.507812 250.5 100.816406 252.695312 C 100.722656 253.039062 100.410156 253.257812 100.066406 253.320312 C 100.035156 253.382812 100.003906 253.382812 99.9375 253.382812 Z M 99.9375 253.382812 " fill-opacity="1" fill-rule="nonzero"/><path fill="#ffcd92" d="M 183.9375 168.769531 C 182.214844 168.769531 180.398438 168.675781 178.582031 168.488281 C 178.519531 168.488281 178.457031 168.457031 178.394531 168.457031 C 169.683594 165.449219 163.480469 160.0625 159.9375 152.417969 C 153.578125 138.667969 157.714844 121.53125 159.65625 116.613281 C 161.535156 111.851562 164.105469 110.941406 179.332031 109.6875 C 181.589844 109.5 183.8125 109.40625 185.945312 109.40625 C 195.6875 109.40625 202.203125 111.414062 205.933594 113.074219 C 210.882812 115.296875 213.078125 117.800781 213.359375 118.179688 C 213.484375 118.367188 213.703125 118.460938 213.921875 118.492188 C 213.921875 118.492188 213.953125 118.492188 213.953125 118.492188 C 214.140625 118.492188 214.363281 118.398438 214.488281 118.273438 C 214.519531 118.242188 217.054688 115.765625 219.78125 115.765625 C 220.03125 115.765625 220.28125 115.796875 220.535156 115.828125 C 222.195312 116.109375 223.636719 117.457031 224.730469 119.839844 C 227.175781 125.007812 225.359375 130.960938 222.195312 133.746094 C 221.378906 134.46875 220.09375 135.3125 218.496094 135.3125 C 217.621094 135.3125 216.742188 135.03125 215.929688 134.53125 C 215.800781 134.4375 215.675781 134.40625 215.519531 134.40625 C 215.363281 134.40625 215.238281 134.4375 215.113281 134.53125 C 214.863281 134.6875 214.738281 134.96875 214.769531 135.28125 C 215.613281 142.363281 213.296875 153.265625 206.121094 160.5 C 200.667969 165.953125 193.210938 168.769531 183.9375 168.769531 C 183.96875 168.769531 183.9375 168.769531 183.9375 168.769531 Z M 183.9375 168.769531 " fill-opacity="1" fill-rule="nonzero"/><path fill="#ffcd92" d="M 178.769531 183.808594 C 178.707031 183.808594 178.644531 183.808594 178.582031 183.777344 C 178.300781 183.714844 178.046875 183.527344 177.921875 183.242188 C 175.511719 177.667969 175.164062 172.65625 175.164062 170.148438 C 175.164062 169.835938 175.324219 169.585938 175.574219 169.398438 C 175.730469 169.304688 175.917969 169.242188 176.074219 169.242188 C 176.199219 169.242188 176.292969 169.273438 176.386719 169.304688 C 176.921875 169.523438 177.484375 169.710938 178.046875 169.898438 C 178.078125 169.898438 178.140625 169.929688 178.203125 169.929688 C 180.179688 170.148438 182.121094 170.242188 183.96875 170.242188 C 193.621094 170.242188 201.421875 167.265625 207.1875 161.441406 C 209.976562 158.621094 212.199219 155.207031 213.796875 151.289062 C 213.921875 150.945312 214.265625 150.726562 214.644531 150.726562 C 214.675781 150.726562 214.675781 150.726562 214.707031 150.726562 C 215.113281 150.757812 215.425781 151.039062 215.519531 151.414062 C 215.898438 152.949219 216.335938 154.234375 216.835938 155.269531 C 216.992188 155.582031 216.960938 155.925781 216.742188 156.207031 C 214.046875 159.875 204.273438 172.152344 192.023438 176.664062 C 186.007812 178.890625 181.964844 181.050781 179.363281 183.527344 C 179.207031 183.714844 178.988281 183.808594 178.769531 183.808594 Z M 178.769531 183.808594 " fill-opacity="1" fill-rule="nonzero"/><path fill="#ffcd92" d="M 119.332031 284.332031 C 118.082031 284.332031 115.886719 282.734375 114.101562 279.257812 C 110.308594 271.773438 109.902344 259.273438 120.210938 246.679688 C 120.367188 246.492188 120.554688 246.398438 120.773438 246.367188 C 124.316406 245.832031 137.285156 243.453125 154.863281 234.839844 C 165.765625 229.480469 173.441406 226.160156 179.019531 223.75 C 183.8125 221.679688 186.695312 220.429688 188.480469 219.269531 C 189.109375 218.863281 189.921875 218.640625 190.925781 218.640625 C 193.714844 218.640625 197.628906 220.207031 201.078125 221.585938 C 201.078125 221.585938 201.109375 221.585938 201.109375 221.585938 C 202.738281 222.246094 204.179688 222.808594 205.558594 223.277344 C 207.96875 224.125 208.816406 225.597656 209.128906 226.691406 C 209.753906 229.105469 208.535156 231.925781 207.0625 233.617188 C 207 233.679688 206.96875 233.742188 206.9375 233.835938 C 206.9375 233.835938 206.9375 233.867188 206.9375 233.867188 C 206.621094 234.648438 203.582031 241.574219 197.722656 247.617188 C 195.40625 250 193.683594 251.441406 192.179688 252.285156 C 192.148438 252.316406 192.117188 252.316406 192.085938 252.316406 C 192.054688 252.316406 192.023438 252.347656 191.992188 252.378906 C 191.960938 252.410156 191.929688 252.410156 191.898438 252.445312 C 190.925781 252.945312 190.015625 253.164062 189.109375 253.164062 C 188.796875 253.164062 188.449219 253.132812 188.136719 253.070312 C 188.136719 253.070312 188.105469 253.070312 188.074219 253.070312 C 186.851562 252.820312 185.660156 252.160156 184.09375 250.847656 C 183.96875 250.71875 183.78125 250.65625 183.59375 250.65625 L 183.5625 250.65625 C 182.9375 250.6875 168.085938 251.441406 163.070312 254.167969 C 159.8125 255.953125 156.335938 259.867188 152.984375 263.660156 L 152.953125 263.691406 C 151.039062 265.851562 149.222656 267.886719 147.5625 269.421875 C 147.4375 269.515625 147.375 269.671875 147.34375 269.828125 C 147.28125 270.082031 147.15625 270.300781 146.9375 270.425781 C 139.230469 275.125 123.5625 284.050781 119.519531 284.332031 C 119.394531 284.332031 119.363281 284.332031 119.332031 284.332031 Z M 119.332031 284.332031 " fill-opacity="1" fill-rule="nonzero"/><path fill="#ffcd92" d="M 141.828125 309.175781 C 135.34375 308.800781 129.515625 306.542969 124.472656 302.503906 C 122.8125 301.15625 121.277344 299.683594 119.929688 298.054688 C 119.710938 297.804688 119.648438 297.429688 119.804688 297.113281 C 119.929688 296.800781 120.242188 296.582031 120.554688 296.550781 C 124 296.238281 127.636719 295.171875 131.050781 293.449219 C 133.464844 292.226562 135.78125 290.691406 137.882812 288.84375 C 138.039062 288.6875 138.257812 288.625 138.476562 288.625 C 138.601562 288.625 138.757812 288.65625 138.882812 288.71875 C 139.230469 288.875 139.417969 289.25 139.386719 289.597656 C 139.039062 293.480469 139.636719 297.960938 141.171875 302.878906 C 141.640625 304.382812 142.207031 306.167969 142.769531 307.921875 C 142.863281 308.203125 142.800781 308.515625 142.613281 308.769531 C 142.425781 308.988281 142.175781 309.113281 141.890625 309.113281 C 141.859375 309.175781 141.828125 309.175781 141.828125 309.175781 Z M 141.828125 309.175781 " fill-opacity="1" fill-rule="nonzero"/><path fill="#4e1d0f" d="M 210.320312 224.71875 C 210.039062 224.71875 209.753906 224.59375 209.597656 224.34375 C 208.785156 223.246094 207.59375 222.433594 206.027344 221.867188 C 204.679688 221.398438 203.238281 220.835938 201.703125 220.207031 L 201.640625 220.175781 C 200.542969 219.738281 199.449219 219.300781 198.382812 218.894531 C 198.132812 218.800781 197.914062 218.578125 197.820312 218.296875 C 197.722656 218.015625 197.785156 217.734375 197.945312 217.515625 C 199.007812 216.011719 200.011719 214.757812 200.636719 214.101562 C 200.828125 213.910156 201.046875 213.816406 201.296875 213.816406 C 201.421875 213.816406 201.578125 213.847656 201.703125 213.910156 C 203.769531 214.945312 209.160156 219.613281 210.976562 221.742188 C 211.007812 221.773438 211.039062 221.804688 211.039062 221.835938 C 211.070312 221.898438 211.101562 221.929688 211.132812 221.960938 C 211.164062 221.992188 211.226562 222.058594 211.257812 222.089844 C 211.386719 222.246094 211.449219 222.371094 211.542969 222.496094 C 211.574219 222.558594 211.605469 222.589844 211.605469 222.652344 C 211.636719 222.746094 211.667969 222.871094 211.667969 222.964844 C 211.667969 223.308594 211.511719 223.625 211.039062 224.3125 C 210.914062 224.5625 210.632812 224.71875 210.320312 224.71875 C 210.351562 224.71875 210.351562 224.71875 210.320312 224.71875 Z M 210.320312 224.71875 " fill-opacity="1" fill-rule="nonzero"/><path fill="#4e1d0f" d="M 173.789062 270.207031 C 171.75 270.207031 169.933594 269.609375 168.523438 268.484375 C 167.019531 267.261719 166.046875 265.414062 166.171875 263.972656 C 166.363281 261.746094 170.875 256.078125 173.222656 253.414062 C 173.378906 253.257812 173.566406 253.132812 173.789062 253.101562 C 177.984375 252.539062 181.839844 252.316406 182.90625 252.253906 C 182.9375 252.253906 182.9375 252.253906 182.96875 252.253906 C 183.15625 252.253906 183.375 252.316406 183.53125 252.441406 C 184.09375 252.882812 184.691406 253.289062 185.253906 253.601562 C 185.503906 253.726562 185.660156 253.976562 185.691406 254.261719 C 185.722656 254.542969 185.660156 254.824219 185.472656 255.011719 C 182.527344 258.300781 182.121094 261.371094 181.808594 263.847656 C 181.464844 266.664062 181.210938 268.515625 177.515625 269.640625 C 176.230469 269.984375 174.976562 270.207031 173.789062 270.207031 Z M 173.789062 270.207031 " fill-opacity="1" fill-rule="nonzero"/><path fill="#e8894c" d="M 180.710938 168.613281 L 184.1875 166.296875 C 184.1875 166.296875 188.699219 165.667969 190.863281 164.417969 C 193.023438 163.164062 194.683594 161.160156 194.683594 161.160156 C 194.683594 161.160156 197.945312 160.90625 202.832031 158.996094 C 207.71875 157.117188 211.480469 152.230469 211.480469 152.230469 C 211.480469 152.230469 206.714844 163.539062 197.066406 167.046875 C 187.480469 170.554688 180.710938 168.613281 180.710938 168.613281 " fill-opacity="1" fill-rule="nonzero"/><path fill="#e8894c" d="M 160.941406 155.925781 L 162.195312 152.417969 L 165.734375 153.546875 C 165.734375 153.546875 167.113281 159.5625 170.121094 163.382812 C 173.128906 167.171875 161.535156 158.621094 161.535156 158.621094 Z M 160.941406 155.925781 " fill-opacity="1" fill-rule="nonzero"/><path fill="#e8894c" d="M 217.933594 120.964844 C 217.933594 120.964844 216.929688 122.25 216.304688 123.816406 C 215.675781 125.382812 215.300781 126.980469 215.300781 126.980469 L 215.175781 127.765625 C 215.175781 127.765625 217.304688 123.316406 219.875 123.816406 C 222.445312 124.320312 222.039062 126.824219 222.039062 126.824219 C 222.039062 126.824219 223.164062 124.726562 221.785156 122.25 C 220.410156 119.808594 217.933594 120.964844 217.933594 120.964844 Z M 217.933594 120.964844 " fill-opacity="1" fill-rule="nonzero"/><path fill="#e8894c" d="M 171.40625 109.78125 C 171.40625 109.78125 182.339844 108.84375 194.089844 114.355469 C 205.839844 119.839844 207.375 130.394531 207.375 130.394531 C 207.375 130.394531 211.226562 117.363281 205.402344 113.199219 C 199.542969 109.0625 180.835938 105.929688 171.40625 109.78125 Z M 171.40625 109.78125 " fill-opacity="1" fill-rule="nonzero"/><path fill="#e8894c" d="M 177.296875 182.242188 C 177.296875 182.242188 177.546875 178.511719 188.074219 174.597656 C 198.601562 170.679688 204.273438 164.039062 204.273438 164.039062 L 215.144531 149.535156 L 216.929688 157.210938 C 216.929688 157.210938 207.34375 170.304688 198.570312 175.222656 C 189.796875 180.140625 180.398438 181.238281 179.082031 184.121094 C 177.796875 187.066406 177.296875 182.242188 177.296875 182.242188 Z M 177.296875 182.242188 " fill-opacity="1" fill-rule="nonzero"/><path fill="#e8894c" d="M 121.621094 244.390625 C 121.621094 244.390625 118.019531 252.222656 123.53125 264.316406 C 129.046875 276.40625 148.535156 268.199219 148.535156 268.199219 C 148.535156 268.199219 138.164062 276.46875 129.828125 280.542969 C 121.496094 284.617188 118.519531 285.335938 117.703125 284.898438 C 116.890625 284.488281 109.558594 276.785156 111.03125 265.539062 C 112.503906 254.292969 119.960938 243.171875 121.621094 244.390625 Z M 121.621094 244.390625 " fill-opacity="1" fill-rule="nonzero"/><path fill="#e8894c" d="M 191.898438 252.410156 C 191.898438 252.410156 190.832031 253.757812 187.636719 252.222656 C 184.410156 250.6875 183 247.054688 183 247.054688 C 183 247.054688 167.238281 248.808594 162.539062 253.382812 C 157.839844 257.957031 168.179688 251.597656 175.542969 251.910156 C 182.90625 252.222656 189.265625 256.359375 191.898438 252.410156 Z M 191.898438 252.410156 " fill-opacity="1" fill-rule="nonzero"/><path fill="#e8894c" d="M 196.28125 248.621094 L 187.636719 243.390625 C 187.636719 243.390625 193.054688 245.613281 196.09375 244.359375 C 199.132812 243.109375 199.980469 239.945312 199.980469 239.945312 L 202.832031 241.699219 C 202.832031 241.699219 201.046875 247.023438 196.28125 248.621094 Z M 196.28125 248.621094 " fill-opacity="1" fill-rule="nonzero"/><path fill="#e8894c" d="M 203.394531 241.417969 L 193.085938 235.433594 C 193.085938 235.433594 198.445312 237.8125 201.734375 235.964844 C 205.023438 234.117188 205.023438 233.050781 205.023438 233.050781 L 207.5625 233.742188 Z M 203.394531 241.417969 " fill-opacity="1" fill-rule="nonzero"/><path fill="#e8894c" d="M 208.0625 234.023438 L 197.285156 228.257812 C 197.285156 228.257812 201.578125 229.667969 204.742188 228.949219 C 207.9375 228.226562 207.78125 224.25 207.78125 224.25 C 207.78125 224.25 211.257812 230.484375 208.0625 234.023438 Z M 208.0625 234.023438 " fill-opacity="1" fill-rule="nonzero"/><path fill="#e8894c" d="M 121.496094 301.0625 C 121.496094 301.0625 126.351562 303.222656 132.960938 299.871094 C 139.574219 296.550781 138.601562 287.9375 138.601562 287.9375 C 138.601562 287.9375 141.328125 301.21875 142.550781 305.417969 C 143.773438 309.613281 143.679688 309.988281 143.679688 309.988281 C 143.679688 309.988281 121.683594 308.015625 121.496094 301.0625 Z M 121.496094 301.0625 " fill-opacity="1" fill-rule="nonzero"/><path fill="#cccccc" d="M 220.972656 101.449219 C 220.972656 101.449219 233.816406 101.761719 236.136719 93.367188 C 238.457031 84.972656 236.136719 81.464844 236.136719 81.464844 C 236.136719 81.464844 237.453125 80.398438 239.363281 82.246094 C 241.273438 84.09375 246.195312 91.863281 242.152344 98.535156 C 238.109375 105.210938 229.054688 107.371094 225.953125 108.4375 C 222.851562 109.5 220.972656 101.449219 220.972656 101.449219 " fill-opacity="1" fill-rule="nonzero"/><path fill="#cccccc" d="M 154.238281 100.199219 C 154.238281 100.199219 159.5 96.8125 167.144531 95.089844 C 174.789062 93.367188 182.589844 94.996094 182.589844 94.996094 C 182.589844 94.996094 171.28125 97.285156 166.894531 102.046875 C 162.507812 106.808594 162.882812 111.378906 162.882812 111.378906 C 162.882812 111.378906 160.316406 115.140625 158.121094 114.984375 C 155.929688 114.828125 150.632812 106.839844 154.238281 100.199219 Z M 154.238281 100.199219 " fill-opacity="1" fill-rule="nonzero"/><path fill="#cccccc" d="M 192.648438 108.53125 C 192.648438 108.53125 200.199219 107.214844 209.503906 108.53125 C 218.839844 109.847656 220.3125 101.859375 220.3125 101.859375 L 223.164062 105.273438 C 223.164062 105.273438 223.382812 114.199219 221.535156 114.734375 C 219.6875 115.234375 214.363281 117.488281 212.761719 116.925781 C 211.195312 116.363281 204.742188 108.5 192.648438 108.53125 Z M 192.648438 108.53125 " fill-opacity="1" fill-rule="nonzero"/><path fill="#cccccc" d="M 148.09375 92.429688 C 147.6875 91.394531 146.246094 88.417969 146.402344 85.003906 C 146.558594 81.589844 146.96875 79.269531 146.96875 79.269531 C 146.96875 79.269531 142.769531 83.40625 143.425781 91.863281 C 144.085938 100.324219 148.753906 102.828125 150.757812 103.644531 C 152.765625 104.457031 153.921875 98.914062 153.921875 98.914062 Z M 148.09375 92.429688 " fill-opacity="1" fill-rule="nonzero"/><path fill="#cccccc" d="M 145.464844 72.378906 C 145.464844 72.378906 152.324219 71.410156 155.804688 73.445312 C 159.28125 75.480469 161.660156 79.867188 161.660156 79.867188 C 161.660156 79.867188 158.8125 75.074219 158.371094 72.722656 C 157.902344 70.375 157.308594 67.148438 157.308594 67.148438 C 157.308594 67.148438 146.6875 68.902344 145.464844 72.378906 Z M 145.464844 72.378906 " fill-opacity="1" fill-rule="nonzero"/><path fill="#cccccc" d="M 168.179688 52.707031 C 168.179688 52.707031 172.472656 51.015625 180.242188 54.242188 C 188.011719 57.46875 193.558594 65.863281 193.558594 65.863281 C 193.558594 65.863281 192.148438 61.476562 193.085938 58.03125 C 193.996094 54.585938 197.160156 52.300781 197.160156 52.300781 C 197.160156 52.300781 195.40625 49.011719 186.320312 48.195312 C 177.234375 47.382812 168.179688 52.707031 168.179688 52.707031 Z M 168.179688 52.707031 " fill-opacity="1" fill-rule="nonzero"/><path fill="#cccccc" d="M 224.984375 172.53125 C 224.984375 172.53125 218.214844 178.636719 212.953125 181.332031 C 207.6875 184.027344 204.773438 185.4375 204.773438 185.4375 C 204.773438 185.4375 219.25 181.082031 223.824219 180.457031 C 228.398438 179.828125 229.117188 181.457031 229.117188 181.457031 L 236.105469 173 L 230.496094 167.328125 Z M 224.984375 172.53125 " fill-opacity="1" fill-rule="nonzero"/><path fill="#cccccc" d="M 134.496094 241.417969 C 134.496094 241.417969 158.121094 196.714844 160.441406 195.054688 C 162.789062 193.394531 172.628906 196.242188 172.628906 196.242188 C 172.628906 196.242188 164.734375 198.625 163.199219 202.414062 C 161.660156 206.207031 145.152344 238.785156 145.152344 238.785156 Z M 134.496094 241.417969 " fill-opacity="1" fill-rule="nonzero"/><path fill="#cccccc" d="M 194.777344 315.378906 C 194.777344 315.378906 186.257812 318.917969 175.164062 314.71875 C 164.105469 310.523438 157.246094 291.664062 157.246094 291.664062 C 157.246094 291.664062 155.394531 318.917969 170.246094 324.054688 Z M 194.777344 315.378906 " fill-opacity="1" fill-rule="nonzero"/><path fill="#cccccc" d="M 192.929688 253.382812 C 192.929688 253.382812 190.894531 258.425781 195.90625 262.625 C 200.921875 266.820312 208.0625 268.578125 208.0625 268.578125 C 208.0625 268.578125 201.140625 267.855469 195.0625 267.949219 C 188.984375 268.042969 186.039062 267.386719 186.039062 267.386719 Z M 192.929688 253.382812 " fill-opacity="1" fill-rule="nonzero"/><path fill="#cccccc" d="M 225.859375 217.953125 C 225.859375 217.953125 236.824219 202.726562 250.203125 202.132812 C 263.582031 201.507812 267.8125 217.953125 267.8125 217.953125 C 267.8125 217.953125 265.652344 199.597656 257.503906 190.761719 C 249.359375 181.929688 249.359375 181.929688 249.359375 181.929688 L 234.351562 205.296875 Z M 225.859375 217.953125 " fill-opacity="1" fill-rule="nonzero"/><path fill="#ffffff" d="M 214.925781 223.558594 C 214.925781 223.558594 238.519531 190.574219 247.730469 173 C 256.941406 155.425781 260.105469 148.503906 260.105469 148.503906 C 260.105469 148.503906 260.667969 156.460938 253.746094 172.183594 C 246.820312 187.910156 219.625 226.597656 218.433594 227.070312 C 217.242188 227.539062 214.925781 223.558594 214.925781 223.558594 " fill-opacity="1" fill-rule="nonzero"/><path fill="#cccccc" d="M 174.101562 176.070312 C 174.101562 176.070312 170.84375 178.261719 167.773438 179.953125 C 164.703125 181.644531 161.597656 182.273438 161.597656 182.273438 C 161.597656 182.273438 164.890625 181.929688 168.710938 185.65625 C 172.535156 189.382812 174.414062 195.085938 174.414062 195.085938 C 174.414062 195.085938 175.949219 192.921875 177.078125 189.726562 C 178.203125 186.53125 177.328125 183.085938 177.328125 183.085938 Z M 174.101562 176.070312 " fill-opacity="1" fill-rule="nonzero"/><g clip-path="url(#1d7961932b)"><path fill="#4e1d0f" d="M 280.878906 139.355469 C 290.777344 156.019531 296.011719 175.128906 296.011719 194.582031 C 296.011719 230.296875 278.402344 263.691406 248.949219 283.957031 C 248.824219 284.050781 248.699219 284.082031 248.574219 284.144531 C 243.96875 291.070312 239.175781 297.050781 234.601562 300.84375 C 218.402344 314.28125 181.808594 321.738281 177.296875 322.613281 C 175.101562 324.304688 165.265625 331.574219 158.402344 331.574219 C 157.777344 331.574219 157.183594 331.511719 156.617188 331.386719 C 150.601562 330.007812 146.558594 321.832031 143.019531 311.617188 C 126.757812 311.242188 118.363281 300.339844 116.417969 297.398438 C 115.167969 297.238281 114.007812 296.957031 113.003906 296.519531 C 109.839844 295.203125 102.445312 292.164062 98.75 283.894531 C 95.679688 277.003906 95.679688 267.761719 98.8125 256.328125 C 98.625 256.203125 98.433594 256.046875 98.277344 255.859375 C 85.839844 237.78125 79.261719 216.574219 79.261719 194.550781 C 79.261719 173.75 85.183594 153.515625 96.367188 136.097656 C 106.988281 119.558594 121.839844 106.242188 139.355469 97.503906 C 136.941406 94.058594 135.375 89.265625 136.878906 82.875 C 139.007812 73.851562 144.429688 69.683594 148.597656 67.742188 C 151.449219 66.425781 154.109375 65.957031 155.710938 65.800781 C 155.929688 64.359375 156.492188 62.074219 157.902344 59.566406 C 160.03125 55.808594 164.574219 50.796875 174.101562 48.070312 C 189.265625 43.746094 196.785156 48.882812 199.101562 50.984375 C 203.175781 50.074219 219 47.382812 230.589844 57.375 C 241.777344 67.054688 240.648438 76.390625 239.894531 79.429688 C 241.839844 81.808594 247.320312 89.453125 244.816406 97.066406 C 244.34375 98.535156 243.59375 99.882812 242.589844 101.136719 C 258.351562 110.503906 271.539062 123.660156 280.878906 139.355469 Z M 253.304688 276.566406 C 278.089844 256.703125 292.660156 226.597656 292.660156 194.613281 C 292.660156 157.210938 272.574219 122.4375 240.210938 103.707031 C 236.730469 106.585938 231.5625 108.78125 224.730469 110.285156 L 223.917969 114.765625 C 225.078125 115.671875 226.109375 117.019531 226.925781 118.804688 C 229.964844 125.257812 227.582031 132.246094 223.792969 135.566406 C 221.816406 137.289062 219.53125 138.007812 217.371094 137.632812 C 217.402344 139.574219 217.273438 141.640625 216.898438 143.773438 C 216.898438 143.835938 216.929688 143.898438 216.929688 143.960938 C 217.023438 145.714844 217.464844 150.132812 218.589844 153.203125 L 221.128906 151.132812 C 221.597656 150.757812 222.195312 150.664062 222.757812 150.851562 C 223.226562 151.039062 227.457031 152.824219 230.152344 161.722656 C 231.84375 167.234375 235.039062 169.679688 236.636719 170.617188 C 238.328125 168.738281 239.925781 166.984375 241.398438 165.386719 C 255.78125 149.882812 260.636719 144.398438 260.699219 144.335938 C 261.171875 143.804688 261.921875 143.617188 262.582031 143.898438 C 263.238281 144.179688 263.644531 144.835938 263.613281 145.527344 C 263.582031 146.058594 262.769531 157.710938 250.421875 181.207031 C 253.652344 183.117188 265.460938 191.230469 267.84375 207.742188 C 268.28125 209.308594 272.417969 224.4375 272.136719 232.988281 C 271.949219 238.847656 263.675781 259.023438 253.304688 276.566406 Z M 268.816406 232.894531 C 269.097656 224.59375 264.648438 208.710938 264.617188 208.523438 C 264.585938 208.460938 264.585938 208.367188 264.585938 208.304688 C 262.519531 193.550781 251.832031 185.96875 248.886719 184.152344 C 248.449219 184.964844 247.980469 185.78125 247.511719 186.625 C 232.441406 213.566406 219.40625 228.417969 219.25 228.542969 C 218.9375 228.886719 218.527344 229.074219 218.058594 229.105469 C 218.027344 229.105469 218.027344 229.105469 217.996094 229.105469 C 217.558594 229.105469 217.148438 228.949219 216.835938 228.636719 L 213.328125 225.285156 C 213.140625 225.597656 212.921875 225.910156 212.699219 226.191406 C 212.324219 226.691406 211.980469 227.226562 211.667969 227.820312 C 211.761719 230.515625 210.507812 233.210938 209.003906 235.027344 C 208.378906 236.4375 205.304688 243.234375 199.386719 249.3125 C 197.378906 251.378906 195.53125 253.039062 193.746094 254.136719 C 192.960938 257.046875 189.578125 267.824219 182.527344 271.269531 C 175.574219 274.652344 147.65625 283.488281 142.988281 284.960938 C 142.269531 286.433594 140.261719 291.851562 143.457031 302.253906 C 147.09375 314.09375 151.480469 326.875 157.371094 328.191406 C 162.164062 329.285156 172.125 322.488281 175.542969 319.796875 C 175.761719 319.636719 176.011719 319.511719 176.261719 319.480469 C 176.667969 319.417969 216.210938 311.808594 232.441406 298.335938 C 239.519531 292.476562 248.355469 279.792969 256.660156 263.5625 C 264.117188 249.089844 268.691406 236.625 268.816406 232.894531 Z M 244.566406 185.027344 C 253.777344 168.550781 257.597656 157.210938 259.195312 151.007812 C 256.1875 154.296875 251.300781 159.65625 243.84375 167.675781 C 231.15625 181.363281 209.410156 206.738281 204.304688 212.722656 C 207.125 214.632812 210.976562 218.046875 212.824219 220.207031 C 212.859375 220.207031 212.859375 220.238281 212.890625 220.238281 L 217.871094 225.03125 C 221.316406 220.898438 232.25 207.082031 244.566406 185.027344 Z M 241.683594 96.125 C 244 88.984375 236.917969 81.121094 236.824219 81.058594 C 236.386719 80.585938 236.261719 79.929688 236.511719 79.332031 C 236.636719 78.957031 239.894531 69.90625 228.429688 60.003906 C 216.648438 49.824219 199.226562 54.492188 199.039062 54.554688 C 198.414062 54.742188 197.722656 54.523438 197.285156 53.992188 C 197.035156 53.710938 191.050781 46.816406 175.039062 51.390625 C 159 55.964844 158.90625 67.367188 158.90625 67.492188 C 158.90625 67.929688 158.71875 68.371094 158.402344 68.683594 C 158.089844 68.996094 157.652344 69.183594 157.183594 69.152344 C 156.617188 69.152344 143.550781 69.121094 140.105469 83.71875 C 137.285156 95.625 147.125 100.917969 150.976562 102.515625 C 151.039062 101.449219 151.136719 100.449219 151.292969 99.539062 C 151.449219 98.632812 152.324219 98.035156 153.234375 98.191406 C 154.144531 98.347656 154.738281 99.226562 154.582031 100.132812 C 154.269531 101.828125 154.207031 103.863281 154.363281 106.117188 C 154.675781 110.128906 156.710938 112.757812 158.058594 114.074219 C 160.660156 109.28125 165.296875 108.375 179.050781 107.246094 C 200.921875 105.429688 210.851562 112.445312 214.015625 115.421875 C 215.488281 114.355469 217.996094 112.976562 220.691406 113.386719 L 221.472656 109.15625 C 221.410156 108.75 221.472656 108.375 221.691406 108.027344 L 222.695312 102.640625 C 222.851562 101.730469 223.730469 101.136719 224.636719 101.292969 C 225.546875 101.449219 226.140625 102.328125 225.984375 103.234375 L 225.359375 106.683594 C 234.632812 104.457031 240.117188 100.917969 241.683594 96.125 Z M 234.351562 173.125 C 232.15625 171.683594 228.773438 168.644531 226.957031 162.695312 C 225.390625 157.554688 223.351562 155.332031 222.289062 154.453125 L 219.21875 156.960938 C 217.808594 158.964844 207.09375 173.71875 192.867188 178.984375 C 178.644531 184.214844 176.859375 188.726562 178.425781 195.648438 C 178.613281 196.464844 178.171875 197.277344 177.390625 197.589844 L 165.078125 202.320312 L 149.097656 234.871094 C 150.632812 234.179688 152.199219 233.460938 153.796875 232.675781 C 164.703125 227.320312 172.410156 223.96875 178.046875 221.523438 C 182.558594 219.582031 185.535156 218.265625 187.164062 217.234375 C 189.359375 215.824219 192.242188 216.074219 195.40625 216.980469 C 196.535156 215.351562 198.664062 212.441406 199.886719 211.625 C 200.167969 211.4375 200.574219 211.28125 201.140625 211.28125 C 204.210938 207.648438 221.128906 187.878906 234.351562 173.125 Z M 221.597656 132.996094 C 224.511719 130.457031 226.171875 124.945312 223.917969 120.152344 C 222.914062 118.054688 221.722656 116.894531 220.378906 116.644531 C 217.871094 116.203125 215.144531 118.804688 215.144531 118.835938 C 214.800781 119.179688 214.328125 119.335938 213.859375 119.304688 C 213.390625 119.273438 212.953125 119.023438 212.636719 118.648438 C 212.636719 118.617188 210.601562 116.078125 205.558594 113.824219 C 200.859375 111.726562 192.492188 109.4375 179.394531 110.503906 C 163.917969 111.789062 162.101562 112.789062 160.503906 116.863281 C 158.589844 121.6875 154.550781 138.476562 160.785156 151.949219 C 164.230469 159.371094 170.246094 164.605469 178.707031 167.519531 C 180.523438 167.707031 182.277344 167.800781 183.96875 167.800781 C 192.960938 167.800781 200.199219 165.105469 205.496094 159.71875 C 212.449219 152.699219 214.707031 142.113281 213.859375 135.21875 C 213.796875 134.5625 214.078125 133.9375 214.644531 133.589844 C 215.207031 133.246094 215.898438 133.246094 216.429688 133.589844 C 218.621094 135.125 220.597656 133.875 221.597656 132.996094 Z M 216.023438 155.707031 C 215.457031 154.515625 214.988281 153.078125 214.644531 151.667969 C 213.109375 155.425781 210.882812 159.058594 207.84375 162.128906 C 201.890625 168.144531 193.871094 171.214844 183.96875 171.214844 C 182.089844 171.214844 180.148438 171.121094 178.109375 170.871094 C 177.984375 170.871094 177.859375 170.839844 177.765625 170.808594 C 177.203125 170.617188 176.636719 170.398438 176.074219 170.179688 C 176.074219 172.71875 176.417969 177.511719 178.769531 182.898438 C 181.527344 180.296875 185.789062 178.074219 191.738281 175.851562 C 203.835938 171.402344 213.578125 158.996094 216.023438 155.707031 Z M 210.789062 222.996094 C 210.789062 222.996094 210.789062 222.964844 210.789062 222.996094 C 210.726562 222.902344 210.664062 222.808594 210.570312 222.683594 C 210.476562 222.589844 210.382812 222.496094 210.320312 222.371094 C 208.597656 220.363281 203.269531 215.730469 201.328125 214.757812 C 200.699219 215.414062 199.699219 216.699219 198.726562 218.078125 C 199.824219 218.484375 200.921875 218.925781 202.015625 219.363281 C 203.550781 219.988281 204.992188 220.554688 206.339844 221.023438 C 208.3125 221.710938 209.566406 222.746094 210.351562 223.8125 C 210.570312 223.464844 210.789062 223.121094 210.789062 222.996094 Z M 206.339844 233.050781 C 207.625 231.578125 208.785156 229.042969 208.21875 226.976562 C 207.875 225.691406 206.875 224.75 205.242188 224.1875 C 203.800781 223.6875 202.265625 223.058594 200.761719 222.464844 C 196.503906 220.742188 191.175781 218.609375 188.984375 220.019531 C 187.132812 221.210938 184.21875 222.496094 179.394531 224.59375 C 173.789062 227.007812 166.109375 230.359375 155.300781 235.652344 C 137.378906 244.457031 124.066406 246.804688 120.960938 247.273438 C 110.9375 259.523438 111.25 271.582031 114.945312 278.851562 C 116.609375 282.109375 118.550781 283.488281 119.394531 283.425781 C 123 283.175781 137.535156 275.03125 146.371094 269.640625 C 146.433594 269.296875 146.625 269.015625 146.875 268.765625 C 148.503906 267.261719 150.320312 265.222656 152.230469 263.0625 C 155.648438 259.210938 159.15625 255.230469 162.570312 253.382812 C 167.835938 250.53125 182.84375 249.8125 183.46875 249.78125 C 183.875 249.75 184.285156 249.90625 184.597656 250.15625 C 185.914062 251.222656 187.039062 251.941406 188.199219 252.191406 C 188.230469 252.191406 188.230469 252.191406 188.261719 252.191406 C 189.265625 252.378906 190.269531 252.222656 191.457031 251.628906 C 191.550781 251.566406 191.613281 251.535156 191.707031 251.503906 C 193.179688 250.6875 194.875 249.246094 197.066406 246.992188 C 203.082031 240.789062 206.058594 233.585938 206.089844 233.523438 C 206.089844 233.335938 206.214844 233.175781 206.339844 233.050781 Z M 189.796875 255.574219 C 189.296875 255.636719 188.796875 255.636719 188.261719 255.574219 C 184.878906 258.707031 184.535156 261.433594 184.21875 264.097656 C 184.125 264.785156 184.03125 265.476562 183.90625 266.164062 C 186.851562 263.1875 188.796875 258.582031 189.796875 255.574219 Z M 184.785156 254.355469 C 184.1875 254.007812 183.59375 253.601562 182.96875 253.132812 C 180.835938 253.257812 177.359375 253.507812 173.914062 253.976562 C 170.652344 257.707031 167.238281 262.4375 167.082031 264.035156 C 166.988281 265.003906 167.675781 266.570312 169.117188 267.761719 C 171.125 269.390625 174.007812 269.734375 177.265625 268.734375 C 180.429688 267.761719 180.585938 266.476562 180.929688 263.691406 C 181.246094 261.152344 181.652344 257.863281 184.785156 254.355469 Z M 174.757812 193.613281 C 174.476562 190.605469 174.976562 188.035156 176.386719 185.75 C 173.472656 179.765625 172.816406 174.316406 172.722656 171.027344 C 169.964844 173.3125 164.734375 177.199219 159.59375 178.574219 C 158.121094 178.984375 157.714844 179.765625 157.527344 180.332031 C 156.585938 183.273438 159.4375 188.820312 161.347656 191.167969 C 161.820312 191.609375 166.207031 195.585938 174.757812 193.613281 Z M 170.8125 272.242188 C 169.085938 271.773438 167.835938 270.988281 167.019531 270.332031 C 164.859375 268.578125 163.574219 265.976562 163.761719 263.722656 C 163.949219 261.464844 166.613281 257.644531 168.867188 254.792969 C 166.894531 255.199219 165.203125 255.703125 164.136719 256.296875 C 161.253906 257.863281 157.933594 261.621094 154.707031 265.253906 C 152.953125 267.261719 151.261719 269.171875 149.664062 270.707031 C 149.664062 270.800781 149.632812 270.894531 149.597656 270.988281 C 148.691406 274.652344 147.375 277.816406 145.839844 280.511719 C 151.792969 278.632812 162.476562 275.1875 170.8125 272.242188 Z M 163.324219 199.4375 L 168.585938 197.402344 C 164.511719 197.089844 161.726562 195.554688 160.222656 194.488281 C 157.996094 195.429688 148.785156 199.4375 138.351562 206.894531 C 127.417969 214.726562 112.816406 227.976562 105.515625 246.773438 C 99.40625 262.4375 98.152344 274.496094 101.789062 282.609375 C 104.578125 288.8125 109.652344 291.601562 114.257812 293.511719 C 117.359375 294.796875 123.4375 294.640625 129.953125 291.351562 C 134.183594 289.21875 141.296875 284.332031 145.085938 274.308594 C 138.132812 278.445312 124.097656 286.464844 119.585938 286.777344 C 116.953125 286.964844 114.039062 284.488281 111.9375 280.386719 C 107.710938 272.054688 107.269531 258.300781 118.769531 244.644531 C 119.050781 244.328125 119.425781 244.109375 119.835938 244.046875 C 119.960938 244.046875 129.828125 242.792969 144.367188 236.875 L 162.382812 200.285156 C 162.601562 199.878906 162.914062 199.597656 163.324219 199.4375 Z M 158.75 175.347656 C 163.699219 174.035156 168.960938 169.867188 171.25 167.925781 C 165.171875 164.542969 160.628906 159.6875 157.714844 153.421875 C 151.542969 140.042969 154.550781 124.191406 156.773438 117.363281 C 155.238281 116.109375 151.574219 112.476562 151.101562 106.367188 C 151.101562 106.273438 151.101562 106.179688 151.070312 106.085938 C 149.789062 105.648438 146.121094 104.207031 142.738281 101.324219 C 142.332031 100.980469 141.953125 100.636719 141.546875 100.230469 C 105.734375 117.707031 82.582031 154.707031 82.582031 194.613281 C 82.582031 215.320312 88.566406 235.277344 99.9375 252.476562 C 100.660156 250.25 101.476562 247.964844 102.382812 245.582031 C 110.027344 225.972656 125.160156 212.21875 136.503906 204.167969 C 145.996094 197.433594 154.300781 193.488281 157.777344 191.953125 C 155.679688 188.820312 153.078125 183.304688 154.363281 179.328125 C 154.800781 177.917969 155.929688 176.101562 158.75 175.347656 Z M 141.859375 308.265625 C 141.328125 306.605469 140.796875 304.914062 140.261719 303.191406 C 138.476562 297.367188 138.164062 292.855469 138.445312 289.566406 C 135.875 291.789062 133.371094 293.292969 131.425781 294.296875 C 127.855469 296.113281 124.066406 297.175781 120.585938 297.492188 C 121.621094 298.710938 123.0625 300.277344 125.003906 301.8125 C 129.921875 305.730469 135.59375 307.921875 141.859375 308.265625 Z M 141.859375 308.265625 " fill-opacity="1" fill-rule="nonzero"/></g><path fill="#4e1d0f" d="M 152.734375 104.457031 C 152.734375 104.457031 156.710938 98.566406 169.996094 96.28125 C 183.28125 93.996094 187.917969 95.40625 187.917969 95.40625 C 187.917969 95.40625 181.621094 92.617188 170.464844 93.523438 C 159.3125 94.464844 152.953125 98.253906 152.953125 98.253906 C 152.953125 98.253906 155.425781 102.046875 152.734375 104.457031 Z M 152.734375 104.457031 " fill-opacity="1" fill-rule="nonzero"/><path fill="#4e1d0f" d="M 197.410156 94.246094 C 197.410156 94.246094 203.644531 95.5 212.859375 100.667969 C 222.070312 105.835938 224.574219 109.46875 224.574219 109.46875 L 226.109375 100.980469 C 226.109375 100.980469 216.867188 94.027344 197.410156 94.246094 Z M 197.410156 94.246094 " fill-opacity="1" fill-rule="nonzero"/><path fill="#4e1d0f" d="M 146.558594 81.558594 C 146.558594 81.558594 145.808594 85.191406 148.535156 90.265625 C 151.261719 95.339844 158.402344 97.878906 158.402344 97.878906 L 153.609375 101.542969 C 153.578125 101.542969 143.773438 97.972656 146.558594 81.558594 Z M 146.558594 81.558594 " fill-opacity="1" fill-rule="nonzero"/><path fill="#4e1d0f" d="M 159.40625 60.445312 L 161.851562 59.097656 C 161.851562 59.097656 158.277344 65.707031 159.3125 71.847656 C 160.347656 77.988281 161.695312 79.898438 161.695312 79.898438 C 161.695312 79.898438 151.792969 67.929688 159.40625 60.445312 Z M 159.40625 60.445312 " fill-opacity="1" fill-rule="nonzero"/><path fill="#4e1d0f" d="M 235.382812 66.238281 C 235.382812 66.238281 238.457031 74.574219 236.105469 79.429688 C 233.753906 84.285156 230.371094 86.289062 230.371094 86.289062 C 230.371094 86.289062 238.800781 83.40625 239.863281 77.328125 C 240.929688 71.25 235.382812 66.238281 235.382812 66.238281 Z M 235.382812 66.238281 " fill-opacity="1" fill-rule="nonzero"/><path fill="#4e1d0f" d="M 215.769531 99.101562 L 216.492188 96.71875 C 216.492188 96.71875 220 98.664062 226.675781 98.285156 C 233.347656 97.910156 236.105469 93.367188 236.105469 93.367188 C 236.105469 93.367188 235.257812 97.441406 231.78125 99.851562 C 228.335938 102.265625 223.417969 102.578125 223.417969 102.578125 Z M 215.769531 99.101562 " fill-opacity="1" fill-rule="nonzero"/><path fill="#4e1d0f" d="M 206.246094 51.796875 C 206.246094 51.796875 197.914062 52.925781 195.1875 57.5 C 192.460938 62.074219 193.589844 65.863281 193.589844 65.863281 C 193.589844 65.863281 190.519531 62.542969 191.675781 57.4375 C 192.835938 52.332031 200.574219 51.109375 200.574219 51.109375 Z M 206.246094 51.796875 " fill-opacity="1" fill-rule="nonzero"/><path fill="#4e1d0f" d="M 170.027344 207.425781 C 170.027344 207.734375 169.96875 208.03125 169.851562 208.316406 C 169.734375 208.597656 169.566406 208.847656 169.347656 209.066406 C 169.132812 209.285156 168.878906 209.453125 168.597656 209.570312 C 168.3125 209.6875 168.015625 209.746094 167.710938 209.746094 C 167.402344 209.746094 167.105469 209.6875 166.820312 209.570312 C 166.539062 209.453125 166.285156 209.285156 166.070312 209.066406 C 165.851562 208.847656 165.683594 208.597656 165.566406 208.316406 C 165.449219 208.03125 165.390625 207.734375 165.390625 207.425781 C 165.390625 207.121094 165.449219 206.824219 165.566406 206.539062 C 165.683594 206.257812 165.851562 206.003906 166.070312 205.789062 C 166.285156 205.570312 166.539062 205.402344 166.820312 205.285156 C 167.105469 205.167969 167.402344 205.109375 167.710938 205.109375 C 168.015625 205.109375 168.3125 205.167969 168.597656 205.285156 C 168.878906 205.402344 169.132812 205.570312 169.347656 205.789062 C 169.566406 206.003906 169.734375 206.257812 169.851562 206.539062 C 169.96875 206.824219 170.027344 207.121094 170.027344 207.425781 Z M 170.027344 207.425781 " fill-opacity="1" fill-rule="nonzero"/><path fill="#4e1d0f" d="M 158.6875 230.640625 C 158.6875 230.949219 158.625 231.242188 158.507812 231.527344 C 158.390625 231.8125 158.222656 232.0625 158.007812 232.28125 C 157.789062 232.496094 157.539062 232.664062 157.253906 232.78125 C 156.96875 232.898438 156.675781 232.957031 156.367188 232.957031 C 156.058594 232.957031 155.765625 232.898438 155.480469 232.78125 C 155.195312 232.664062 154.945312 232.496094 154.726562 232.28125 C 154.511719 232.0625 154.34375 231.8125 154.226562 231.527344 C 154.105469 231.242188 154.046875 230.949219 154.046875 230.640625 C 154.046875 230.332031 154.105469 230.035156 154.226562 229.753906 C 154.34375 229.46875 154.511719 229.21875 154.726562 229 C 154.945312 228.785156 155.195312 228.617188 155.480469 228.5 C 155.765625 228.382812 156.058594 228.320312 156.367188 228.320312 C 156.675781 228.320312 156.96875 228.382812 157.253906 228.5 C 157.539062 228.617188 157.789062 228.785156 158.007812 229 C 158.222656 229.21875 158.390625 229.46875 158.507812 229.753906 C 158.625 230.035156 158.6875 230.332031 158.6875 230.640625 Z M 158.6875 230.640625 " fill-opacity="1" fill-rule="nonzero"/><path fill="#4e1d0f" d="M 171.375 126.855469 C 171.375 127.269531 171.3125 127.671875 171.195312 128.054688 C 171.074219 128.4375 170.902344 128.777344 170.675781 129.070312 C 170.453125 129.363281 170.195312 129.589844 169.90625 129.75 C 169.613281 129.910156 169.308594 129.988281 168.992188 129.988281 C 168.679688 129.988281 168.375 129.910156 168.082031 129.75 C 167.789062 129.589844 167.53125 129.363281 167.308594 129.070312 C 167.085938 128.777344 166.914062 128.4375 166.792969 128.054688 C 166.671875 127.671875 166.613281 127.269531 166.613281 126.855469 C 166.613281 126.441406 166.671875 126.039062 166.792969 125.65625 C 166.914062 125.273438 167.085938 124.933594 167.308594 124.640625 C 167.53125 124.347656 167.789062 124.121094 168.082031 123.960938 C 168.375 123.804688 168.679688 123.722656 168.992188 123.722656 C 169.308594 123.722656 169.613281 123.804688 169.90625 123.960938 C 170.195312 124.121094 170.453125 124.347656 170.675781 124.640625 C 170.902344 124.933594 171.074219 125.273438 171.195312 125.65625 C 171.3125 126.039062 171.375 126.441406 171.375 126.855469 Z M 171.375 126.855469 " fill-opacity="1" fill-rule="nonzero"/><path fill="#4e1d0f" d="M 190.179688 124.363281 C 190.238281 124.777344 190.234375 125.179688 190.167969 125.578125 C 190.097656 125.972656 189.976562 126.332031 189.792969 126.65625 C 189.613281 126.976562 189.390625 127.234375 189.121094 127.433594 C 188.855469 127.628906 188.566406 127.75 188.253906 127.792969 C 187.941406 127.839844 187.628906 127.800781 187.316406 127.683594 C 187.007812 127.566406 186.71875 127.378906 186.460938 127.117188 C 186.199219 126.855469 185.980469 126.546875 185.808594 126.183594 C 185.636719 125.816406 185.519531 125.429688 185.464844 125.019531 C 185.40625 124.609375 185.410156 124.203125 185.476562 123.808594 C 185.546875 123.410156 185.667969 123.050781 185.851562 122.730469 C 186.03125 122.40625 186.253906 122.148438 186.523438 121.949219 C 186.789062 121.753906 187.078125 121.632812 187.390625 121.589844 C 187.703125 121.546875 188.015625 121.582031 188.328125 121.699219 C 188.636719 121.816406 188.921875 122.007812 189.183594 122.265625 C 189.445312 122.527344 189.664062 122.839844 189.835938 123.203125 C 190.007812 123.566406 190.125 123.953125 190.179688 124.363281 Z M 190.179688 124.363281 " fill-opacity="1" fill-rule="nonzero"/><path fill="#4e1d0f" d="M 172.347656 130.394531 C 171.3125 131.398438 170.433594 132.496094 169.871094 133.714844 C 169.589844 134.3125 169.402344 134.9375 169.308594 135.535156 C 169.246094 136.128906 169.277344 136.722656 169.464844 137.320312 C 169.496094 137.476562 169.558594 137.601562 169.621094 137.726562 C 169.683594 137.851562 169.746094 138.007812 169.808594 138.132812 C 169.871094 138.289062 169.933594 138.351562 169.996094 138.445312 C 170.058594 138.539062 170.152344 138.632812 170.246094 138.730469 C 170.589844 139.074219 171.125 139.386719 171.6875 139.605469 C 172.253906 139.824219 172.878906 140.011719 173.503906 140.105469 C 174.132812 140.230469 174.789062 140.296875 175.449219 140.328125 C 176.105469 140.359375 176.765625 140.359375 177.453125 140.328125 C 178.109375 140.296875 178.800781 140.230469 179.457031 140.167969 C 180.773438 139.980469 182.089844 139.699219 183.3125 139.230469 C 184.535156 138.761719 185.691406 138.101562 186.445312 137.101562 C 186.820312 136.597656 187.070312 136.003906 187.164062 135.34375 C 187.226562 135.03125 187.226562 134.6875 187.195312 134.34375 C 187.195312 134 187.101562 133.652344 187.039062 133.308594 C 187.417969 133.90625 187.730469 134.59375 187.792969 135.375 C 187.886719 136.128906 187.730469 136.941406 187.386719 137.664062 C 187.039062 138.382812 186.507812 139.011719 185.945312 139.511719 C 185.347656 140.042969 184.722656 140.453125 184.03125 140.796875 C 182.683594 141.515625 181.246094 141.957031 179.773438 142.238281 C 179.050781 142.363281 178.300781 142.457031 177.546875 142.519531 C 176.796875 142.550781 176.042969 142.582031 175.292969 142.519531 C 173.789062 142.425781 172.285156 142.175781 170.8125 141.484375 C 170.089844 141.140625 169.339844 140.703125 168.773438 139.980469 C 168.617188 139.792969 168.492188 139.605469 168.367188 139.417969 C 168.242188 139.230469 168.148438 138.980469 168.085938 138.792969 C 168.023438 138.601562 167.960938 138.414062 167.898438 138.195312 C 167.835938 138.007812 167.804688 137.789062 167.773438 137.601562 C 167.613281 136.785156 167.675781 135.941406 167.898438 135.15625 C 168.117188 134.375 168.492188 133.683594 168.929688 133.058594 C 169.402344 132.433594 169.902344 131.929688 170.496094 131.460938 C 171.0625 131.085938 171.6875 130.679688 172.347656 130.394531 Z M 172.347656 130.394531 " fill-opacity="1" fill-rule="nonzero"/><path fill="#4e1d0f" d="M 179.457031 141.140625 C 179.457031 141.140625 184.785156 136.910156 191.582031 141.328125 C 198.382812 145.746094 207.4375 141.046875 207.4375 141.046875 C 207.4375 141.046875 203.613281 151.636719 191.898438 152.980469 C 180.179688 154.328125 176.292969 149.378906 176.386719 142.582031 Z M 179.457031 141.140625 " fill-opacity="1" fill-rule="nonzero"/><path fill="#4e1d0f" d="M 174.101562 141.671875 C 174.101562 141.671875 168.523438 139.730469 164.199219 145.277344 C 159.875 150.820312 151.136719 149.566406 151.136719 149.566406 C 151.136719 149.566406 157.277344 157.148438 167.269531 154.925781 C 177.234375 152.699219 179.019531 147.53125 177.015625 141.988281 Z M 174.101562 141.671875 " fill-opacity="1" fill-rule="nonzero"/><path fill="#4e1d0f" d="M 183.25 117.050781 L 182.621094 113.855469 C 182.621094 113.855469 185.503906 113.324219 188.417969 114.042969 C 191.332031 114.765625 192.679688 117.269531 192.679688 117.269531 C 192.679688 117.269531 186.820312 115.734375 183.25 117.050781 Z M 183.25 117.050781 " fill-opacity="1" fill-rule="nonzero"/><path fill="#4e1d0f" d="M 171.40625 118.742188 L 171.125 115.484375 C 171.125 115.484375 168.210938 115.796875 165.609375 117.300781 C 163.007812 118.804688 162.445312 121.625 162.445312 121.625 C 162.445312 121.625 167.582031 118.492188 171.40625 118.742188 Z M 171.40625 118.742188 " fill-opacity="1" fill-rule="nonzero"/><path fill="#4e1d0f" d="M 168.148438 160.25 C 168.148438 160.25 169.996094 165.855469 180.273438 165.730469 C 190.550781 165.605469 194.714844 161.191406 194.714844 161.191406 C 194.714844 161.191406 190.613281 167.988281 180.710938 168.613281 C 170.8125 169.242188 168.148438 160.25 168.148438 160.25 Z M 168.148438 160.25 " fill-opacity="1" fill-rule="nonzero"/><path fill="#4e1d0f" d="M 227.519531 160.8125 C 227.519531 160.8125 230.777344 165.230469 223.792969 172.121094 C 216.773438 179.046875 210.726562 182.242188 210.726562 182.242188 C 210.726562 182.242188 219.0625 179.109375 224.824219 174.941406 C 230.589844 170.777344 231.9375 168.675781 231.9375 168.675781 Z M 227.519531 160.8125 " fill-opacity="1" fill-rule="nonzero"/><path fill="#4e1d0f" d="M 200.511719 110.347656 C 200.511719 110.347656 205.304688 114.449219 206.152344 121.59375 C 207 128.734375 206.152344 133.183594 206.152344 133.183594 L 210.695312 131.585938 C 210.695312 131.585938 215.050781 127.292969 214.109375 118.554688 C 214.109375 118.554688 209.347656 111.347656 200.511719 110.347656 Z M 200.511719 110.347656 " fill-opacity="1" fill-rule="nonzero"/><path fill="#4e1d0f" d="M 117.265625 247.871094 L 117.265625 247.117188 C 117.265625 247.117188 118.175781 245.050781 121.339844 241.164062 C 124.503906 237.3125 129.828125 233.992188 129.828125 233.992188 C 129.828125 233.992188 124.847656 241.417969 124.03125 244.328125 C 123.1875 247.273438 117.265625 247.871094 117.265625 247.871094 Z M 117.265625 247.871094 " fill-opacity="1" fill-rule="nonzero"/><path fill="#4e1d0f" d="M 208.0625 232.957031 C 208.0625 232.957031 207.4375 233.175781 204.335938 231.613281 C 201.234375 230.046875 199.195312 229.230469 199.195312 229.230469 C 199.195312 229.230469 204.554688 234.117188 206.089844 234.839844 C 207.625 235.558594 208.0625 232.957031 208.0625 232.957031 Z M 208.0625 232.957031 " fill-opacity="1" fill-rule="nonzero"/><path fill="#4e1d0f" d="M 204.023438 240.476562 C 204.023438 240.476562 203.394531 240.695312 200.292969 239.128906 C 197.191406 237.5625 195.15625 236.75 195.15625 236.75 C 195.15625 236.75 200.511719 241.636719 202.046875 242.355469 C 203.582031 243.078125 204.023438 240.476562 204.023438 240.476562 Z M 204.023438 240.476562 " fill-opacity="1" fill-rule="nonzero"/><path fill="#4e1d0f" d="M 197.128906 247.585938 C 197.128906 247.585938 196.503906 247.808594 193.402344 246.242188 C 190.300781 244.675781 188.261719 243.859375 188.261719 243.859375 C 188.261719 243.859375 193.621094 248.746094 195.15625 249.46875 C 196.753906 250.21875 197.128906 247.585938 197.128906 247.585938 Z M 197.128906 247.585938 " fill-opacity="1" fill-rule="nonzero"/><path fill="#4e1d0f" d="M 174.695312 272.617188 C 174.695312 272.617188 183.5 269.671875 191.582031 268.921875 C 199.699219 268.167969 204.023438 268.167969 204.023438 268.167969 C 204.023438 268.167969 197.976562 267.355469 192.710938 266.886719 C 187.449219 266.414062 185.191406 267.199219 185.191406 267.199219 Z M 174.695312 272.617188 " fill-opacity="1" fill-rule="nonzero"/><path fill="#4e1d0f" d="M 174.414062 172.8125 C 174.414062 172.8125 171.40625 176.945312 166.582031 178.667969 C 161.757812 180.394531 161.597656 182.242188 161.597656 182.242188 C 161.597656 182.242188 167.050781 180.957031 170.652344 179.234375 C 174.257812 177.511719 175.007812 176.445312 175.007812 176.445312 Z M 174.414062 172.8125 " fill-opacity="1" fill-rule="nonzero"/><path fill="#4e1d0f" d="M 176.355469 194.804688 C 176.355469 194.804688 177.484375 195.617188 185.597656 193.519531 C 193.714844 191.386719 198.570312 188.632812 198.570312 188.632812 C 198.570312 188.632812 192.367188 195.367188 175.917969 198.125 C 159.46875 200.878906 176.355469 194.804688 176.355469 194.804688 Z M 176.355469 194.804688 " fill-opacity="1" fill-rule="nonzero"/><path fill="#4e1d0f" d="M 215.300781 126.980469 C 215.300781 126.980469 215.613281 119.621094 219.21875 119.621094 C 222.820312 119.621094 222.476562 124.320312 222.476562 124.320312 C 222.476562 124.320312 221.410156 121.25 219.25 121.46875 C 217.085938 121.6875 215.300781 126.980469 215.300781 126.980469 Z M 215.300781 126.980469 " fill-opacity="1" fill-rule="nonzero"/><path fill="#4e1d0f" d="M 213.703125 222.246094 C 213.703125 222.246094 222.132812 210.875 231.9375 197.027344 C 241.746094 183.179688 252.367188 163.382812 252.367188 163.382812 C 252.367188 163.382812 244.753906 180.582031 233.035156 198.84375 C 221.316406 217.074219 215.992188 224.5 215.992188 224.5 Z M 213.703125 222.246094 " fill-opacity="1" fill-rule="nonzero"/><path fill="#4e1d0f" d="M 114.351562 281.453125 L 114.945312 284.617188 C 114.945312 284.617188 119.207031 288.90625 122.5625 289.21875 C 125.914062 289.535156 132.742188 288.71875 137.566406 277.941406 C 137.566406 277.941406 125.253906 285.117188 121.464844 285.023438 C 117.703125 284.898438 114.351562 281.453125 114.351562 281.453125 Z M 114.351562 281.453125 " fill-opacity="1" fill-rule="nonzero"/></svg>